<svg xmlns="http://www.w3.org/2000/svg" xmlns:xlink="http://www.w3.org/1999/xlink" viewBox="0 0 566.93 566.93"><defs><clipPath id="clip-path"><rect id="frame" width="566.93" height="566.93" style="fill:none"/></clipPath></defs><title>service-hightlight</title><g style="isolation:isolate"><g id="Traced"><g id="after-sales-support"><g style="clip-path:url(#clip-path)"><g id="after-sales-service"><path d="M451.07,533.71H317.56a16.61,16.61,0,0,1,0-33.22H451.07a16.59,16.59,0,0,0,16.55-16.61V416.33a16.55,16.55,0,1,1,33.1,0v67.55A49.79,49.79,0,0,1,451.07,533.71Z" style="fill:#ffb9ab"/><path d="M500.73,217v33.23l-31.46,6.63a15.16,15.16,0,0,1-1.66-6.63V217c0-100.64-82.84-183.81-183.16-183.81S101.3,116.37,101.3,217v33.23a18.18,18.18,0,0,1-3,9.3l-30.13-9.3V217C68.18,98.1,165.94,0,284.45,0S500.73,98.1,500.73,217Z" style="fill:#ffb9ab"/><path d="M284.45,0V33.2C184.14,33.2,101.3,116.37,101.3,217v33.23a18.18,18.18,0,0,1-3,9.3l-30.13-9.3V217C68.18,98.1,165.94,0,284.45,0Z" style="fill:#ffcdbe;opacity:0.3;mix-blend-mode:screen"/><path d="M517.28,432.94H484.17a16.58,16.58,0,0,1-16.55-16.61V250.24a16.58,16.58,0,0,1,16.55-16.61h33.11a49.8,49.8,0,0,1,49.65,49.83v99.65A49.8,49.8,0,0,1,517.28,432.94Z" style="fill:#eb3934"/><path d="M84.74,432.94H51.64A49.8,49.8,0,0,1,2,383.11V283.46a49.8,49.8,0,0,1,49.66-49.83h33.1a16.58,16.58,0,0,1,16.55,16.61V416.33A16.58,16.58,0,0,1,84.74,432.94Z" style="fill:#eb3934"/><path d="M84.74,432.94H51.64A49.8,49.8,0,0,1,2,383.11V283.46a49.8,49.8,0,0,1,49.66-49.83h33.1a16.58,16.58,0,0,1,16.55,16.61V416.33A16.58,16.58,0,0,1,84.74,432.94Z" style="fill:#fc6124;opacity:0.45;mix-blend-mode:screen"/><path d="M117.84,466.16a49.79,49.79,0,0,1-49.65-49.83V250.24a49.65,49.65,0,1,1,99.3,0V416.33A49.79,49.79,0,0,1,117.84,466.16Z" style="fill:#606060"/><path d="M451.07,466.16a49.79,49.79,0,0,1-49.65-49.83V250.24a49.65,49.65,0,1,1,99.3,0V416.33A49.79,49.79,0,0,1,451.07,466.16Z" style="fill:#606060"/><path d="M117.84,466.16a49.79,49.79,0,0,1-49.65-49.83V250.24a49.65,49.65,0,1,1,99.3,0V416.33A49.79,49.79,0,0,1,117.84,466.16Z" style="fill:#465a61;opacity:0.2;mix-blend-mode:screen"/><ellipse cx="284.46" cy="517.09" rx="49.66" ry="49.83" style="fill:#eb3934"/><path d="M284.46,467.26v99.67a49.84,49.84,0,0,1,0-99.67Z" style="fill:#fc6124;opacity:0.45;mix-blend-mode:screen"/></g></g></g></g></g></svg>