<svg xmlns="http://www.w3.org/2000/svg" xmlns:xlink="http://www.w3.org/1999/xlink" viewBox="0 0 566.93 566.93"><defs><clipPath id="clip-path"><rect id="frame" width="566.93" height="566.93" style="fill:none"/></clipPath></defs><title>service-hightlight</title><g style="isolation:isolate"><g id="Traced"><g id="easy-tracking"><g style="clip-path:url(#clip-path)"><g id="easy-tracking-2" data-name="easy-tracking"><path d="M333,398,262.57,327.5a16.62,16.62,0,0,0-23.49,0L98.17,468.42a16.59,16.59,0,0,0,0,23.48l70.45,70.16a16.59,16.59,0,0,0,23.48,0l47-46.67a16.6,16.6,0,0,0,0-23.49l-11.74-11.74,23.48-23.48,11.75,11.74a16.59,16.59,0,0,0,23.48,0l47-47A16.61,16.61,0,0,0,333,398Z" style="fill:#f75c26"/><path d="M303.44,310.07,98.18,515.34a16.44,16.44,0,0,1-23.58,0L27.76,468.5a16.45,16.45,0,0,1,0-23.58L233,239.66,268.34,275Z" style="fill:#ffc840"/><path d="M268.34,275l-217,217L27.76,468.5a16.45,16.45,0,0,1,0-23.58L233,239.66Z" style="fill:#ffc840;opacity:0.5;mix-blend-mode:screen"/><path d="M507.79,167.27C500.09,98.1,445,43,375.85,35.33a147.13,147.13,0,0,0-33.21,0A149.63,149.63,0,0,0,209.76,183.87a152.11,152.11,0,0,0,.94,16.61c7.67,69.13,62.81,124.24,131.94,131.94A149.58,149.58,0,0,0,507.79,167.27ZM375.85,298.91a115.49,115.49,0,0,1-33.21,0,116.44,116.44,0,0,1-98.46-98.43,118.42,118.42,0,0,1,0-33.21,116.46,116.46,0,0,1,98.46-98.46,114.54,114.54,0,0,1,33.21,0,116.44,116.44,0,0,1,98.43,98.46,115.49,115.49,0,0,1,0,33.21A116.42,116.42,0,0,1,375.85,298.91Z" style="fill:#eb3934"/><path d="M276.22,183.87a16.61,16.61,0,0,1-16.61,16.61H193.16a16.61,16.61,0,1,1,0-33.21h66.45A16.61,16.61,0,0,1,276.22,183.87Z" style="fill:#eb3934"/><path d="M375.85,16.68V84.21a16.61,16.61,0,0,1-33.21,0V16.68a16.61,16.61,0,1,1,33.21,0Z" style="fill:#eb3934"/><path d="M375.85,283.51v66.42a16.61,16.61,0,1,1-33.21,0V283.51a16.61,16.61,0,1,1,33.21,0Z" style="fill:#eb3934"/><path d="M541.91,183.86a16.6,16.6,0,0,1-16.6,16.61H458.88a16.61,16.61,0,1,1,0-33.21h66.43A16.59,16.59,0,0,1,541.91,183.86Z" style="fill:#eb3934"/><path d="M359.25.07V100.81a16.44,16.44,0,0,1-16.61-16.6V68.81a116.46,116.46,0,0,0-98.46,98.46h15.43a16.61,16.61,0,1,1,0,33.21H244.18a116.44,116.44,0,0,0,98.46,98.43v-15.4a16.44,16.44,0,0,1,16.61-16.61v99.64a16.44,16.44,0,0,1-16.61-16.61V332.42c-69.13-7.7-124.27-62.81-131.94-131.94H193.16a16.61,16.61,0,1,1,0-33.21H210.7A149.77,149.77,0,0,1,342.64,35.33V16.68A16.44,16.44,0,0,1,359.25.07Z" style="fill:#fc6124;opacity:0.45;mix-blend-mode:screen"/><circle cx="359.25" cy="183.87" r="49.82" style="fill:#eb3934"/><path d="M359.25,134.06v99.63a49.82,49.82,0,1,1,0-99.63Z" style="fill:#fc6124;opacity:0.45;mix-blend-mode:screen"/></g></g></g></g></g></svg>