<svg xmlns="http://www.w3.org/2000/svg" xmlns:xlink="http://www.w3.org/1999/xlink" viewBox="0 0 566.93 566.93"><defs><clipPath id="clip-path"><rect id="frame" width="566.93" height="566.93" style="fill:none"/></clipPath></defs><title>fast-delivery</title><g style="isolation:isolate"><g id="Traced"><g style="clip-path:url(#clip-path)"><g id="fast-delivery"><path d="M511.91,514.86H85.22a17.51,17.51,0,0,1-17.48-19l37.48-427.8a17.52,17.52,0,0,1,17.47-16H549.38a17.51,17.51,0,0,1,17.48,19L529.38,498.9A17.52,17.52,0,0,1,511.91,514.86Z" style="fill:#ffc840"/><path d="M246.1,378.27a17,17,0,0,0,12,29.09h51.09l-9.49,107.5H85.22a17.49,17.49,0,0,1-17.48-19L105.22,68a17.53,17.53,0,0,1,17.48-16H286.85a17,17,0,0,0-16.91,15.49l-9.46,108.37a16.94,16.94,0,0,0,16.9,18.42H328L312.24,373.28H258.15A17,17,0,0,0,246.1,378.27Z" style="fill:#ffc840;opacity:0.5;mix-blend-mode:screen"/><rect x="241.11" y="373.28" width="142.08" height="34.1" rx="17.05" ry="17.05" style="fill:#eb3934"/><path d="M312.24,373.28l-3,34.08H258.15a17,17,0,1,1,0-34.08Z" style="fill:#fc6124;opacity:0.45;mix-blend-mode:screen"/><path d="M384.89,194.37H277.38a17,17,0,0,1-16.9-18.44l9.46-108.36a17,17,0,0,1,16.9-15.49H394.35a17,17,0,0,1,16.9,18.44l-9.46,108.36A17,17,0,0,1,384.89,194.37Z" style="fill:#eb3833"/><path d="M340.6,52.07,328,194.35H277.38a16.94,16.94,0,0,1-16.9-18.42l9.46-108.37a17,17,0,0,1,16.91-15.49Z" style="fill:#fc6124;opacity:0.45;mix-blend-mode:screen"/><rect x="26.42" y="373.28" width="142.08" height="34.1" rx="17.05" ry="17.05" style="fill:#eb3934"/><rect y="266.67" width="142.08" height="34.1" rx="17.05" ry="17.05" style="fill:#f75c26"/><rect x="46.03" y="159.57" width="142.08" height="34.1" rx="17.05" ry="17.05" style="fill:#eb3934"/></g></g></g></g></svg>