<svg xmlns="http://www.w3.org/2000/svg" xmlns:xlink="http://www.w3.org/1999/xlink" viewBox="0 0 566.93 566.93"><defs><clipPath id="clip-path"><rect id="frame" width="566.93" height="566.93" style="fill:none"/></clipPath></defs><title>service-hightlight</title><g style="isolation:isolate"><g id="Traced"><g id="instant-quotation"><g style="clip-path:url(#clip-path)"><g id="instant-quotation-2" data-name="instant-quotation"><path d="M413.13,514.25c0,51.61-21.08,52.68-195.9,52.68-25,0-46.91,0-66-.17-116.75-.9-129.87-7.36-129.87-52.51A195.87,195.87,0,0,1,216.4,318.36h.83a195.82,195.82,0,0,1,195.9,195.89Z" style="fill:#eb3934"/><path d="M216.4,318.36v248.4H151.21c-116.75-.9-129.87-7.36-129.87-52.51A195.87,195.87,0,0,1,216.4,318.36Z" style="fill:#fc6124;opacity:0.45;mix-blend-mode:screen"/><path d="M392.05,176.48A176.41,176.41,0,0,1,216.4,353h-.83a176.48,176.48,0,0,1,0-353h.83A176.48,176.48,0,0,1,392.05,176.48Z" style="fill:#ffb9ab"/><circle cx="151.75" cy="136.3" r="16.09" style="fill:#eb3934"/><circle cx="279.94" cy="136.3" r="16.09" style="fill:#eb3934"/><path d="M284.53,244.32a.63.63,0,0,0-.17.14,97.35,97.35,0,0,1-137.39,0,.76.76,0,0,0-.16-.14,16,16,0,0,1-4.46-13.92,16.1,16.1,0,0,1,27-9.05,2.11,2.11,0,0,0,.47.43,67.45,67.45,0,0,0,45.72,17.95h.2a67.44,67.44,0,0,0,45.71-17.95,1.91,1.91,0,0,0,.47-.43,16.11,16.11,0,0,1,22.58,23Z" style="fill:#eb3934"/><path d="M216.4,0V353h-.83a176.48,176.48,0,0,1,0-353Z" style="fill:#ffcdbe;opacity:0.3;mix-blend-mode:screen"/><path d="M543,416A149.83,149.83,0,0,1,393.14,565.85c-.66,0-1.29,0-2,0a149.82,149.82,0,0,1,0-299.61c.67,0,1.3,0,2,0A149.83,149.83,0,0,1,543,416Z" style="fill:#ffc840"/><path d="M442,440.55v0a41.13,41.13,0,0,1-32.46,40.26v8a16.22,16.22,0,0,1-16.22,16.22h0a16.22,16.22,0,0,1-16.22-16.22v-7.09H369.7A16.75,16.75,0,0,1,353,465.42a2.08,2.08,0,0,1,0-.43,16.82,16.82,0,0,1,4.93-11.89,16.6,16.6,0,0,1,11.85-4.93h31.87a7.8,7.8,0,0,0,5.59-2.3,7.9,7.9,0,0,0-3.69-13.28h0a6.82,6.82,0,0,0-1.86-.23H380.06c-1-.14-2-.27-3-.5A40.41,40.41,0,0,1,344.6,392.3v0a40.26,40.26,0,0,1,32.46-39.56V344a16.22,16.22,0,0,1,16.22-16.21h0A16.22,16.22,0,0,1,409.53,344v7.93h8.32a15.82,15.82,0,1,1,0,31.63H385a7.89,7.89,0,0,0-7.89,7.89v0a7.89,7.89,0,0,0,7.89,7.89H400.8a41.19,41.19,0,0,1,33.3,16.91A41.12,41.12,0,0,1,442,440.55Z" style="fill:#eb3934"/><path d="M391.18,266.2V565.81a149.82,149.82,0,0,1,0-299.61Z" style="fill:#ffc840;opacity:0.5;mix-blend-mode:screen"/></g></g></g></g></g></svg>