<svg xmlns="http://www.w3.org/2000/svg" xmlns:xlink="http://www.w3.org/1999/xlink" viewBox="0 0 566.93 566.93"><defs><clipPath id="clip-path"><rect id="frame" width="566.93" height="566.93" style="fill:none"/></clipPath></defs><title>service-hightlight</title><g style="isolation:isolate"><g id="Traced"><g id="quick-purchase"><g style="clip-path:url(#clip-path)"><g id="quick-purchase-2" data-name="quick-purchase"><path d="M564.73,291.1l-87.5,145.83c-23.23,38.53-68.5,62.47-118,62.47H199.83l-72.26,62.9a22.37,22.37,0,0,1-13.34,4.63,22.7,22.7,0,0,1-13.7-4.63L5.43,479.46A16.18,16.18,0,0,1,0,467.53a15.35,15.35,0,0,1,5.43-11.67L118,357.53c17.9-15.6,41.87-24.23,67.37-24.23H383.23a17.31,17.31,0,0,1,14.1,7,13,13,0,0,1,.37,14.3c-8.37,14.27-18.27,30.9-21.7,36.2a19.42,19.42,0,0,1-16.74,9H229.9c-10.63,0-19,7.3-19,16.6s8.4,16.63,19,16.63H359.26c21.3,0,40.34-10.3,50.24-26.6L468.1,309c15.6-25.9,46.4-42.17,79.9-42.17a19.29,19.29,0,0,1,16,8A14.24,14.24,0,0,1,564.73,291.1Z" style="fill:#ffb9ab"/><path d="M210.87,416.33c0,9.3,8.4,16.63,19,16.63H287V499.4H199.83l-72.26,62.9a22.37,22.37,0,0,1-13.34,4.63,22.7,22.7,0,0,1-13.7-4.63L5.43,479.46A16.18,16.18,0,0,1,0,467.53a15.35,15.35,0,0,1,5.43-11.67L118,357.53c17.9-15.6,41.87-24.23,67.37-24.23H287v66.43H229.9C219.27,399.73,210.87,407,210.87,416.33Z" style="fill:#ffcdbe;opacity:0.3;mix-blend-mode:screen"/><path d="M420.13,83.07V283.46c0,9.3-8.37,16.6-19,16.6H172.83c-10.66,0-19-7.3-19-16.6V83.07c0-9.34,8.37-16.64,19-16.64h228.3C411.76,66.43,420.13,73.73,420.13,83.07Z" style="fill:#eb3934"/><path d="M287,66.43V300.06H172.83c-10.66,0-19-7.3-19-16.6V83.07c0-9.34,8.37-16.64,19-16.64Z" style="fill:#fc6124;opacity:0.45;mix-blend-mode:screen"/><path d="M344.06,49.83v66.44c0,9.3-8.4,16.6-19,16.6s-19-7.3-19-16.6V49.83c0-9.3-8.37-16.6-19-16.6s-19,7.3-19,16.6v66.44c0,9.3-8.36,16.6-19,16.6s-19-7.3-19-16.6V49.83c0-25.26,21.43-46.1,49.33-49.36A65.49,65.49,0,0,1,287,0C318.56,0,344.06,22.27,344.06,49.83Z" style="fill:#606060"/><path d="M287,.47V33.23c-10.63,0-19,7.3-19,16.6v66.44c0,9.3-8.36,16.6-19,16.6s-19-7.3-19-16.6V49.83c0-25.26,21.43-46.1,49.33-49.36Z" style="fill:#465a61;opacity:0.3;mix-blend-mode:screen"/></g></g></g></g></g></svg>